PathFileType	4	(x/y/z)	A01_FAST_T0024.trc
DataRate	CameraRate	NumFrames	NumMarkers	Units	OrigDataRate	OrigDataStartFrame	OrigNumFrames
240	240	7	48	mm	240	146	290
Frame#	Time	TOP_HEAD			R_AC			L_AC			R_ASIS			L_ASIS			R_PSIS			L_PSIS			SACRAL			L_IC			R_IC			L_GT			R_GT			R_LAT_KNEE			R_MED_KNEE			L_MED_KNEE			L_LAT_KNEE			R_TOE			L_TOE			R_1ST_MET			L_1ST_MET			L_5TH_MET			R_5TH_MET			R_LAT_ANK			R_MED_ANK			L_MED_ANK			L_LAT_ANK			L_HEEL_SUP			R_HEEL_SUP			L_HEEL_LAT			R_HEEL_LAT			L_HEEL_MED			R_HEEL_MED			R_LL_PROX_POST			R_LL_PROX_ANT			R_LL_DIST_ANT			R_LL_DIST_POST			R_THIGH_PROX_POST			R_THIGH_PROX_ANT			R_THIGH_DIST_ANT			R_THIGH_DIST_POST			L_PROS_PROX_ANT			L_PROS_PROX_POST			L_PROS_DIST_POST			L_PROS_DIST_ANT			L_THIGH_PROX_ANT			L_THIGH_PROX_POST			L_THIGH_DIST_POST			L_THIGH_DIST_ANT			
		X1	Y1	Z1	X2	Y2	Z2	X3	Y3	Z3	X4	Y4	Z4	X5	Y5	Z5	X6	Y6	Z6	X7	Y7	Z7	X8	Y8	Z8	X9	Y9	Z9	X10	Y10	Z10	X11	Y11	Z11	X12	Y12	Z12	X13	Y13	Z13	X14	Y14	Z14	X15	Y15	Z15	X16	Y16	Z16	X17	Y17	Z17	X18	Y18	Z18	X19	Y19	Z19	X20	Y20	Z20	X21	Y21	Z21	X22	Y22	Z22	X23	Y23	Z23	X24	Y24	Z24	X25	Y25	Z25	X26	Y26	Z26	X27	Y27	Z27	X28	Y28	Z28	X29	Y29	Z29	X30	Y30	Z30	X31	Y31	Z31	X32	Y32	Z32	X33	Y33	Z33	X34	Y34	Z34	X35	Y35	Z35	X36	Y36	Z36	X37	Y37	Z37	X38	Y38	Z38	X39	Y39	Z39	X40	Y40	Z40	X41	Y41	Z41	X42	Y42	Z42	X43	Y43	Z43	X44	Y44	Z44	X45	Y45	Z45	X46	Y46	Z46	X47	Y47	Z47	X48	Y48	Z48	

146	0.60626	319.04	1707.4	284.37	84.919	1529.5	531.98	76.138	1530.1	80.914	67.68	1053	504.23	32.561	986.62	153.75	-156.84	1061.1	406.75	-158.75	1073.8	274.56	-176.68	1039.7	340.17	16.132	1119.4	118.65	29.939	1156.1	520.28	-55.003	923.09	122.94	18.037	943.72	555.99	146.81	556.92	486.1	166.31	565.1	351.85	-155.07	534.18	350.58	-170.87	545.58	193.9	548.82	235.7	410.71	-207.99	70.581	259.86	498.96	169.78	360.31	-292.38	57.789	313.8	-321.33	52.656	187.57	476.52	142.58	490.07	344.61	127.23	461.23	348.54	139.87	360.11	-383.98	158.28	297.55	-416.02	161.53	229.05	-521.47	129.17	268.94	285.69	42.652	398.49	-518.36	98.987	237.6	305.4	27.186	434.34	-509.66	96.373	301.45	313.42	27.108	374.79	138.74	354.32	486.04	204.56	377.71	509.48	241.92	313.05	493.92	192.59	290.37	478.66	24.663	792.25	536.73	85.309	832.72	540.28	116.53	748.37	527.83	59.063	710.42	520.93	-166.26	451.33	207.98	-215.76	475.53	196.73	-248.9	422.48	206.33	-197.74	405.64	215.55	-35.186	767.43	161.59	-100.47	794.07	147.99	-112.75	719.58	162.41	-52.862	696.47	174.46
147	0.61044	325.98	1706.2	285.09	92.535	1528	532.9	83.16	1529.1	81.992	75.385	1051.7	504.54	39.674	985.23	154.03	-149.39	1059.7	407.44	-151.39	1072.4	275.23	-169.24	1038.3	340.86	23.185	1118.3	119.11	37.664	1154.5	520.91	-48.077	921.83	123.28	26.194	942.59	556.28	155.53	556.11	486.04	174.36	564.27	351.98	-148.62	532.93	350.25	-164.45	544.46	193.65	555.42	231.96	407.73	-207.41	70.047	259.8	504.57	166.46	358.01	-291.73	58.072	313.82	-320.84	53.165	187.57	482.95	139.9	487.98	351.02	125.82	460.35	354.19	138.11	359.09	-382.11	159.75	297.55	-414.11	163.37	229.12	-519.93	132.16	269.07	290.41	42.354	398.2	-517.28	101.96	237.8	310.21	26.825	433.99	-508.53	99.276	301.6	317.66	26.297	374.38	146.68	353.66	486.41	212.83	376.76	509.17	249.7	311.92	493.39	200.14	289.46	478.65	33.211	791.34	537.04	93.794	832.01	540.36	125.18	747.77	527.86	67.822	709.63	521.12	-160.94	450.16	207.74	-210.17	474.94	196.52	-243.93	422.28	206.17	-192.97	404.85	215.34	-28.624	766.17	161.71	-93.869	792.95	148.17	-106.27	718.45	162.46	-46.422	695.21	174.45
148	0.61462	332.93	1705.1	285.79	100.14	1526.4	533.84	90.151	1528	83.07	83.109	1050.6	504.88	46.88	983.85	154.36	-141.92	1058.2	408.08	-143.98	1071	275.84	-161.77	1036.8	341.51	30.345	1117.2	119.6	45.385	1152.9	521.58	-41.028	920.56	123.65	34.376	941.53	556.58	164.29	555.38	486	182.51	563.51	352.14	-141.91	531.64	349.91	-157.77	543.29	193.39	561.82	227.64	404.78	-206.8	69.483	259.73	509.82	162.67	355.77	-291.04	58.389	313.84	-320.32	53.731	187.58	488.94	136.87	485.95	357.01	124.35	459.52	359.47	136.25	358.1	-380.1	161.33	297.55	-412.06	165.34	229.2	-518.22	135.36	269.23	294.56	42.178	397.95	-516.09	105.15	238.03	314.38	26.563	433.69	-507.26	102.39	301.78	321.26	25.542	374.01	154.5	353.12	486.79	221.01	375.87	508.86	257.32	310.81	492.87	207.5	288.6	478.65	41.803	790.51	537.35	102.31	831.37	540.44	133.88	747.24	527.88	76.634	708.92	521.33	-155.41	448.97	207.49	-204.34	474.34	196.3	-238.73	422.1	206	-187.98	404.06	215.13	-21.904	764.91	161.84	-87.119	791.81	148.35	-99.626	717.29	162.51	-39.797	693.95	174.45
149	0.6188	339.89	1703.9	286.48	107.74	1524.8	534.81	97.108	1527	84.143	90.847	1049.5	505.24	54.178	982.49	154.72	-134.45	1056.8	408.68	-136.51	1069.5	276.39	-154.25	1035.4	342.11	37.613	1116.1	120.12	53.103	1151.3	522.27	-33.856	919.26	124.03	42.573	940.55	556.9	173.06	554.73	485.97	190.71	562.82	352.34	-134.91	530.3	349.54	-150.82	542.08	193.1	568.03	222.76	401.91	-206.16	68.89	259.65	514.76	158.46	353.62	-290.28	58.743	313.87	-319.76	54.359	187.6	494.53	133.5	483.99	362.63	122.83	458.74	364.41	134.34	357.15	-377.95	163.04	297.57	-409.85	167.45	229.29	-516.34	138.78	269.4	298.17	42.142	397.75	-514.76	108.56	238.28	317.98	26.416	433.43	-505.84	105.72	301.98	324.27	24.87	373.7	162.2	352.7	487.19	229.08	375.04	508.55	264.78	309.74	492.35	214.69	287.82	478.66	50.414	789.75	537.66	110.84	830.81	540.52	142.59	746.79	527.91	85.466	708.27	521.55	-149.63	447.76	207.21	-198.25	473.73	196.06	-233.3	421.93	205.82	-182.78	403.26	214.9	-15.021	763.66	161.99	-80.212	790.64	148.54	-92.795	716.1	162.56	-32.981	692.68	174.46
150	0.62298	346.87	1702.9	287.14	115.31	1523.3	535.8	104.03	1525.9	85.207	98.589	1048.6	505.62	61.565	981.16	155.12	-126.97	1055.4	409.23	-129.01	1068	276.89	-146.71	1033.9	342.67	44.985	1115	120.65	60.817	1149.7	522.99	-26.563	917.94	124.42	50.775	939.66	557.24	181.81	554.18	485.97	198.94	562.2	352.55	-127.62	528.91	349.16	-143.58	540.83	192.8	574.08	217.37	399.16	-205.49	68.266	259.58	519.42	153.88	351.58	-289.47	59.138	313.92	-319.15	55.057	187.62	499.72	129.85	482.13	367.88	121.29	458.02	369.05	132.41	356.26	-375.63	164.88	297.6	-407.47	169.69	229.39	-514.27	142.43	269.6	301.32	42.254	397.58	-513.27	112.21	238.56	321.05	26.392	433.21	-504.27	109.3	302.2	326.76	24.304	373.44	169.78	352.4	487.6	237.05	374.29	508.25	272.08	308.73	491.84	221.71	287.13	478.68	59.02	789.06	537.99	119.35	830.33	540.6	151.3	746.41	527.93	94.286	707.7	521.77	-143.61	446.53	206.93	-191.9	473.1	195.81	-227.61	421.78	205.63	-177.34	402.46	214.67	-7.9698	762.41	162.15	-73.145	789.45	148.73	-85.773	714.89	162.63	-25.966	691.41	174.48
151	0.62716	353.86	1701.8	287.77	122.88	1521.7	536.81	110.92	1524.9	86.257	106.32	1047.8	506.03	69.034	979.86	155.57	-119.5	1054	409.74	-121.47	1066.6	277.33	-139.15	1032.4	343.18	52.459	1113.9	121.2	68.526	1148.2	523.75	-19.149	916.61	124.85	58.969	938.87	557.61	190.53	553.72	486	207.16	561.68	352.79	-120.01	527.47	348.77	-136.04	539.55	192.48	579.97	211.55	396.58	-204.79	67.611	259.5	523.82	149	349.69	-288.59	59.579	313.97	-318.49	55.833	187.65	504.56	125.95	480.4	372.81	119.77	457.35	373.43	130.5	355.43	-373.13	166.86	297.63	-404.89	172.09	229.52	-511.97	146.32	269.83	304.06	42.522	397.45	-511.61	116.12	238.86	323.66	26.495	433.03	-502.51	113.12	302.46	328.78	23.866	373.22	177.25	352.23	488.02	244.91	373.63	507.97	279.24	307.79	491.35	228.57	286.55	478.72	67.595	788.46	538.32	127.83	829.93	540.68	159.97	746.11	527.96	103.06	707.2	522.02	-137.32	445.27	206.63	-185.27	472.48	195.56	-221.66	421.64	205.44	-171.65	401.66	214.43	-0.74651	761.17	162.34	-65.913	788.24	148.94	-78.555	713.65	162.69	-18.744	690.14	174.52
152	0.63134	360.88	1700.8	288.37	130.42	1520.2	537.85	117.78	1523.8	87.29	114.04	1047.1	506.47	76.581	978.59	156.06	-112.04	1052.7	410.21	-113.91	1065.1	277.71	-131.57	1030.9	343.65	60.031	1112.7	121.77	76.229	1146.7	524.54	-11.618	915.27	125.29	67.142	938.18	557.99	199.21	553.38	486.05	215.34	561.25	353.04	-112.09	525.99	348.37	-128.19	538.23	192.16	585.72	205.34	394.19	-204.05	66.924	259.42	528	143.88	347.96	-287.64	60.071	314.03	-317.78	56.697	187.68	509.04	121.85	478.82	377.42	118.27	456.76	377.57	128.63	354.69	-370.43	168.99	297.67	-402.1	174.65	229.65	-509.44	150.47	270.08	306.45	42.945	397.35	-509.75	120.3	239.19	325.87	26.723	432.88	-500.55	117.2	302.74	330.42	23.57	373.04	184.62	352.2	488.45	252.66	373.08	507.72	286.25	306.94	490.89	235.29	286.09	478.78	76.115	787.94	538.67	136.26	829.6	540.78	168.58	745.87	528.01	111.77	706.79	522.28	-130.76	444	206.33	-178.34	471.84	195.3	-215.42	421.53	205.24	-165.7	400.86	214.18	6.6534	759.95	162.55	-58.513	787.01	149.15	-71.135	712.38	162.77	-11.31	688.88	174.57
